<svg xmlns="http://www.w3.org/2000/svg" viewBox="0 0 100 100">
<!--
Adapted from OpenClaw ui/public/provider-icons/ProviderIcon-perplexity.svg.
Source: https://github.com/steipete/CodexBar/blob/215efbd39ad58acb4b0cd637c407d63e6183bc8d/Sources/CodexBar/Resources/ProviderIcon-perplexity.svg

MIT License
Copyright (c) 2026 Peter Steinberger

Permission is hereby granted, free of charge, to any person obtaining a copy
of this software and associated documentation files (the "Software"), to deal
in the Software without restriction, including without limitation the rights
to use, copy, modify, merge, publish, distribute, sublicense, and/or sell
copies of the Software, and to permit persons to whom the Software is
furnished to do so, subject to the following conditions:

The above copyright notice and this permission notice shall be included in all
copies or substantial portions of the Software.

THE SOFTWARE IS PROVIDED "AS IS", WITHOUT WARRANTY OF ANY KIND, EXPRESS OR
IMPLIED, INCLUDING BUT NOT LIMITED TO THE WARRANTIES OF MERCHANTABILITY,
FITNESS FOR A PARTICULAR PURPOSE AND NONINFRINGEMENT. IN NO EVENT SHALL THE
AUTHORS OR COPYRIGHT HOLDERS BE LIABLE FOR ANY CLAIM, DAMAGES OR OTHER
LIABILITY, WHETHER IN AN ACTION OF CONTRACT, TORT OR OTHERWISE, ARISING FROM,
OUT OF OR IN CONNECTION WITH THE SOFTWARE OR THE USE OR OTHER DEALINGS IN THE
SOFTWARE.

Names and marks remain the property of their respective owners.
-->
  <path fill="currentColor" fill-rule="evenodd" stroke="none" transform="translate(10 10) scale(3.3333)" d="M22.3977 7.0896h-2.3106V.0676l-7.5094 6.3542V.1577h-1.1554v6.1966L4.4904 0v7.0896H1.6023v10.3976h2.8882V24l6.932-6.3591v6.2005h1.1554v-6.0469l6.9318 6.1807v-6.4879h2.8882V7.0896zm-3.4657-4.531v4.531h-5.355l5.355-4.531zm-13.2862.0676 4.8691 4.4634H5.6458V2.6262zM2.7576 16.332V8.245h7.8476l-6.1149 6.1147v1.9723H2.7576zm2.8882 5.0404v-3.8852h.0001v-2.6488l5.7763-5.7764v7.0111l-5.7764 5.2993zm12.7086.0248-5.7766-5.1509V9.0618l5.7766 5.7766v6.5588zm2.8882-5.0652h-1.733v-1.9723L13.3948 8.245h7.8478v8.087z" />
</svg>
